<svg width="1486" height="292" viewBox="0 0 1486 292" fill="none" xmlns="http://www.w3.org/2000/svg">
<rect x="176.7" y="137.588" width="102" height="159" rx="9.5" transform="rotate(-53.4005 176.7 137.588)" stroke="black"/>
<g clip-path="url(#clip0_12_473)">
<path d="M214.164 137.145C226.008 121.196 237.803 105.314 249.663 89.344C250.108 89.7086 250.532 90.057 250.936 90.4081C255.855 94.621 260.774 98.834 265.692 103.047C269.751 106.536 273.804 110.055 277.862 113.544C281.909 117.025 285.964 120.495 290.009 123.957C291.466 125.209 292.904 126.464 294.378 127.694C294.702 127.968 294.728 128.209 294.608 128.577C291.891 136.759 289.192 144.938 286.475 153.12C286.373 153.417 286.157 153.732 285.901 153.915C278.838 158.903 271.761 163.864 264.706 168.841C264.379 169.074 264.144 169.069 263.809 168.855C258.385 165.369 252.933 161.897 247.492 158.433C243.42 155.834 239.341 153.246 235.259 150.638C231.781 148.412 228.313 146.193 224.835 143.966C221.414 141.799 218.013 139.63 214.604 137.471C214.483 137.381 214.351 137.283 214.164 137.145ZM266.365 127.188C266.527 127.291 266.621 127.326 266.687 127.375C269.062 129.411 271.435 131.428 273.794 133.485C273.951 133.619 274.011 134.02 273.955 134.233C273.123 136.822 272.272 139.415 271.399 141.991C271.318 142.237 271.154 142.505 270.95 142.642C268.673 144.26 266.394 145.86 264.082 147.435C263.913 147.548 263.58 147.538 263.379 147.44C262.875 147.201 262.405 146.869 261.922 146.578C260.346 148.7 258.803 150.779 257.243 152.879C257.43 153.018 257.565 153.135 257.716 153.23C259.637 154.453 261.575 155.655 263.481 156.9C263.859 157.148 264.097 157.103 264.442 156.868C268.808 153.813 273.184 150.767 277.55 147.713C277.77 147.554 278.006 147.305 278.075 147.051C279.772 141.896 281.45 136.744 283.117 131.584C283.176 131.39 283.067 131.055 282.918 130.91C282.233 130.249 281.496 129.634 280.768 129.008C276.006 124.928 271.244 120.849 266.474 116.78C266.025 116.396 265.577 116.012 265.052 115.572C259.488 123.064 253.98 130.48 248.44 137.94C245.544 136.078 242.735 134.281 239.861 132.435C245.71 124.559 251.493 116.771 257.318 108.928C255.289 107.184 253.306 105.491 251.31 103.771C243.682 114.042 236.095 124.258 228.459 134.54C230.252 135.685 232.014 136.824 233.766 137.955C239.125 141.392 244.481 144.81 249.823 148.268C250.375 148.627 250.59 148.43 250.899 148.014C255.859 141.312 260.822 134.629 265.794 127.934C265.984 127.702 266.154 127.472 266.365 127.188Z" fill="black"/>
</g>
<path d="M288.544 189.881L289.512 188.577L293.915 191.847L298.024 186.314L293.621 183.044L294.589 181.74L304.946 189.431L303.978 190.735L299.183 187.174L295.074 192.708L299.869 196.268L298.9 197.572L288.544 189.881ZM308.301 184.914L299.103 178.083L296.543 181.53L295.384 180.67L301.473 172.471L302.632 173.332L300.071 176.779L309.269 183.61L308.301 184.914ZM312.898 178.723L302.542 171.032L303.865 169.25L314.878 172.395L314.9 172.367L308.705 162.732L310.029 160.95L320.385 168.642L319.417 169.945L310.9 163.62L310.879 163.649L317.072 173.103L316.212 174.262L305.371 171.065L305.349 171.094L313.866 177.42L312.898 178.723ZM311.579 158.863L312.547 157.56L321.745 164.391L325.779 158.959L326.937 159.819L321.935 166.555L311.579 158.863Z" fill="black"/>
<rect x="406.968" y="68.6727" width="102" height="159" rx="9.5" transform="rotate(27.0445 406.968 68.6727)" stroke="black"/>
<path d="M387.222 196.837C387.571 195.637 387.572 193.572 385.178 192.349C382.446 190.955 380.099 192.735 378.918 195.049C377.728 197.379 377.663 200.323 380.395 201.718C382.806 202.949 384.574 201.785 385.409 200.388L386.855 201.127C385.302 203.534 382.567 204.447 379.739 203.004C376.589 201.396 375.7 197.781 377.472 194.31C379.235 190.855 382.685 189.456 385.834 191.064C388.646 192.499 389.511 195.25 388.668 197.575L387.222 196.837ZM394.073 201.59C396.332 203.554 397.798 204.849 396.461 207.469C395.608 209.14 393.575 210.067 390.666 208.582C387.95 207.196 386.583 204.675 387.768 201.957L389.214 202.695C388.571 204.352 388.912 206.066 391.322 207.296C393.315 208.314 394.49 207.759 395.015 206.73C395.819 205.155 395.115 204.431 392.847 202.524C391.333 201.245 389.579 199.6 390.72 197.366C391.647 195.55 393.66 195.059 396.199 196.355C398.642 197.602 399.705 199.725 398.684 202.202L397.237 201.463C397.816 199.814 397.359 198.568 395.543 197.641C393.92 196.812 392.732 196.996 392.248 197.944C391.469 199.471 392.599 200.311 394.073 201.59ZM404.293 206.808C406.552 208.771 408.018 210.066 406.681 212.686C405.828 214.357 403.795 215.284 400.886 213.799C398.17 212.413 396.803 209.892 397.988 207.174L399.434 207.913C398.791 209.57 399.132 211.283 401.542 212.514C403.535 213.531 404.71 212.976 405.235 211.948C406.039 210.373 405.335 209.649 403.067 207.741C401.553 206.462 399.799 204.817 400.94 202.584C401.867 200.768 403.88 200.276 406.419 201.572C408.861 202.819 409.925 204.942 408.904 207.419L407.457 206.681C408.036 205.031 407.578 203.785 405.763 202.858C404.14 202.029 402.952 202.213 402.468 203.161C401.688 204.688 402.819 205.528 404.293 206.808Z" fill="black"/>
<g clip-path="url(#clip1_12_473)">
<path d="M414.664 102.562C432.191 111.51 449.67 120.433 467.178 129.371C467.128 129.492 467.093 129.609 467.029 129.711C465.353 132.367 463.677 135.023 462.011 137.684C460.563 139.991 459.124 142.303 457.675 144.61C455.446 148.158 453.206 151.701 450.971 155.258C449.523 157.565 448.074 159.872 446.626 162.179C445.187 164.467 443.739 166.75 442.295 169.047C440.856 171.335 439.427 173.627 437.984 175.925C437.064 177.388 436.14 178.837 435.23 180.306C435.077 180.558 434.91 180.693 434.567 180.616C426.658 178.989 418.744 177.371 410.835 175.744C410.601 175.698 410.356 175.573 410.181 175.41C405.525 171.149 400.883 166.883 396.227 162.622C394.936 161.437 393.646 160.251 392.35 159.076C392.106 158.854 392.024 158.653 392.163 158.332C393.202 155.792 394.216 153.251 395.245 150.705C396.279 148.149 397.303 145.589 398.341 143.024C399.36 140.497 400.389 137.976 401.408 135.449C402.417 132.942 403.416 130.43 404.43 127.914C405.812 124.484 407.199 121.044 408.581 117.614C409.798 114.577 411.021 111.555 412.239 108.519C413.044 106.532 413.849 104.569 414.664 102.562ZM409.03 142.534C408.926 142.762 408.841 142.951 408.767 143.146C408.26 144.404 407.758 145.677 407.251 146.935C406.425 149.01 405.6 151.085 404.765 153.155C404.646 153.436 404.659 153.627 404.922 153.859C408.605 157.207 412.277 160.574 415.959 163.922C416.159 164.11 416.437 164.264 416.701 164.326C421.607 165.35 426.518 166.364 431.433 167.393C431.746 167.455 431.894 167.383 432.052 167.121C432.393 166.549 432.779 165.987 433.13 165.42C435.859 161.063 438.583 156.715 441.322 152.363C444.387 147.492 447.462 142.626 450.527 137.755C451.002 136.994 451.481 136.223 451.966 135.443C440.854 129.77 429.8 124.127 418.717 118.47C418.648 118.606 418.589 118.698 418.554 118.79C417.784 120.587 417.009 122.394 416.249 124.196C415.971 124.862 415.981 124.867 416.635 125.201C424.75 129.319 432.864 133.437 440.979 137.555C441.203 137.669 441.408 137.798 441.657 137.938C441.489 138.219 441.355 138.457 441.212 138.689C440.228 140.303 439.244 141.918 438.284 143.532C437.686 144.536 437.834 144.367 436.94 143.923C429.225 140.107 421.515 136.281 413.801 132.465C413.586 132.355 413.346 132.27 413.083 132.16C412.237 134.371 411.411 136.519 410.576 138.686C418.368 142.664 426.101 146.612 433.884 150.585C433.246 151.544 432.648 152.45 432.06 153.361C430.869 155.163 429.678 156.966 428.507 158.778C428.314 159.083 428.103 159.159 427.751 159.077C425.218 158.518 422.689 157.998 420.151 157.449C419.95 157.407 419.73 157.307 419.579 157.169C417.621 155.411 415.678 153.648 413.729 151.895C413.491 151.687 413.457 151.511 413.572 151.239C414.228 149.641 414.849 148.037 415.515 146.444C415.699 146.012 415.651 145.816 415.216 145.606C413.322 144.664 411.432 143.687 409.548 142.725C409.382 142.664 409.235 142.614 409.03 142.534Z" fill="black"/>
</g>
<rect x="1289.4" y="8.6161" width="102" height="159" rx="9.5" transform="rotate(15.6092 1289.4 8.6161)" stroke="black"/>
<path d="M1264.76 126.798L1266.41 127.26L1265.93 138.103L1265.96 138.113L1271.59 128.706L1273.33 129.192L1273.26 140.152L1273.3 140.161L1278.51 130.639L1280.16 131.1L1273.61 142.665L1271.87 142.18L1271.98 130.727L1271.95 130.717L1266.1 140.568L1264.36 140.082L1264.76 126.798ZM1280.97 144.983C1278.26 144.225 1277.16 141.858 1277.93 139.095C1278.7 136.332 1280.87 134.877 1283.58 135.634C1286.27 136.386 1287.37 138.754 1286.6 141.517C1285.83 144.28 1283.66 145.735 1280.97 144.983ZM1281.31 143.766C1283.29 144.32 1284.68 143.023 1285.21 141.129C1285.74 139.235 1285.22 137.404 1283.24 136.85C1281.24 136.292 1279.85 137.589 1279.32 139.483C1278.79 141.377 1279.31 143.208 1281.31 143.766ZM1293.36 138.366C1293.69 138.458 1293.93 138.544 1294.16 138.646L1293.77 140.037L1293.74 140.027C1291.89 139.175 1290.18 140.157 1289.65 142.051L1288.33 146.777L1286.94 146.389L1289.41 137.527L1290.8 137.915L1290.31 139.67L1290.35 139.68C1291.14 138.647 1292.09 138.012 1293.36 138.366ZM1302.51 137.345L1303.9 137.733L1300.43 150.158L1299.04 149.769L1299.34 148.674L1299.31 148.665C1298.6 149.197 1297.58 149.624 1296.15 149.226C1293.93 148.605 1292.65 146.354 1293.46 143.435C1294.28 140.516 1296.54 139.256 1298.77 139.877C1300.19 140.275 1300.85 141.134 1301.16 142.044L1301.19 142.054L1302.51 137.345ZM1296.63 148.048C1298.28 148.51 1299.69 147.423 1300.28 145.338C1300.86 143.253 1300.22 141.594 1298.57 141.132C1296.74 140.623 1295.34 142.086 1294.85 143.823C1294.37 145.561 1294.81 147.539 1296.63 148.048ZM1302.72 150.797L1306.19 138.372L1311.12 139.751C1313.4 140.387 1314.87 141.885 1314.14 144.492C1313.42 147.099 1311.38 147.616 1309.1 146.98L1305.73 146.038L1304.28 151.234L1302.72 150.797ZM1307.36 140.2L1306.12 144.648L1309.67 145.638C1311.21 146.071 1312.16 145.567 1312.58 144.055C1313 142.543 1312.45 141.622 1310.91 141.19L1307.36 140.2ZM1319.57 145.69C1319.9 145.782 1320.14 145.867 1320.37 145.97L1319.98 147.36L1319.95 147.35C1318.11 146.499 1316.39 147.48 1315.86 149.374L1314.54 154.101L1313.15 153.713L1315.63 144.85L1317.02 145.239L1316.53 146.994L1316.56 147.003C1317.36 145.97 1318.3 145.335 1319.57 145.69ZM1322.99 155.411C1324.76 155.906 1325.74 154.944 1326.07 154.379L1327.46 154.767C1326.54 156.292 1324.9 157.258 1322.7 156.642C1320 155.889 1318.9 153.539 1319.68 150.758C1320.5 147.804 1322.65 146.55 1325.24 147.273C1328.02 148.05 1328.85 150.323 1327.97 153.468L1320.97 151.512C1320.52 153.111 1321.06 154.872 1322.99 155.411ZM1324.9 148.49C1323.23 148.024 1321.7 148.87 1321.31 150.295L1326.92 151.864C1327.32 150.439 1326.57 148.956 1324.9 148.49ZM1333.45 153.707C1334.92 154.531 1336.64 155.292 1336.03 157.482C1335.58 159.098 1333.81 159.745 1331.79 159.182C1329.08 158.425 1328.19 156.789 1328.63 154.853L1330.02 155.242C1329.83 156.256 1329.91 157.344 1332.13 157.965C1333.64 158.388 1334.45 157.771 1334.62 157.18C1334.98 155.894 1333.83 155.499 1332.65 154.832C1331.39 154.123 1329.41 153.404 1330 151.319C1330.38 149.928 1331.93 149.144 1334.02 149.726C1336.23 150.343 1337.06 151.924 1336.77 153.492L1335.38 153.104C1335.43 152.387 1335.35 151.409 1333.68 150.943C1332.43 150.593 1331.61 150.908 1331.42 151.603C1331.12 152.645 1332.3 153.067 1333.45 153.707ZM1341.94 156.079C1343.41 156.903 1345.13 157.664 1344.52 159.853C1344.07 161.469 1342.29 162.117 1340.28 161.554C1337.57 160.796 1336.68 159.161 1337.12 157.225L1338.51 157.613C1338.32 158.628 1338.39 159.716 1340.62 160.337C1342.13 160.759 1342.94 160.143 1343.1 159.552C1343.46 158.266 1342.32 157.871 1341.14 157.204C1339.87 156.495 1337.9 155.775 1338.49 153.69C1338.87 152.3 1340.42 151.515 1342.51 152.098C1344.72 152.714 1345.55 154.296 1345.26 155.864L1343.87 155.475C1343.92 154.759 1343.84 153.78 1342.17 153.314C1340.92 152.965 1340.1 153.279 1339.9 153.974C1339.61 155.017 1340.79 155.439 1341.94 156.079Z" fill="black"/>
<path d="M1333.17 47.5917C1349.84 51.8316 1359.93 68.8382 1355.42 85.574C1351 101.976 1334.07 111.898 1317.42 107.502C1300.96 103.152 1290.98 86.2749 1295.45 69.6269C1299.85 53.2208 1316.69 43.3938 1333.17 47.5917ZM1351.65 84.8377C1355.68 70.4056 1347.21 55.4219 1332.77 51.4437C1318.29 47.4537 1303.24 55.9271 1299.24 70.3228C1295.22 84.7891 1303.67 99.7367 1318.12 103.717C1332.58 107.712 1347.62 99.2487 1351.65 84.8377Z" fill="black"/>
<path d="M1315.51 90.292C1315.47 89.4198 1315.42 88.6453 1315.38 87.8747C1315.04 81.1981 1314.7 74.5216 1314.36 67.854C1314.28 66.2485 1314.2 64.6359 1314.12 63.0324C1314.1 62.5767 1314.13 62.5634 1314.56 62.644C1315.29 62.786 1316.02 62.937 1316.76 63.0578C1317.23 63.1342 1317.65 63.0297 1317.9 62.5832C1318.24 62.0073 1317.96 61.3068 1317.29 61.1362C1316.29 60.8874 1315.25 60.7142 1314.25 60.4654C1312.78 60.1101 1311.31 59.7175 1309.84 59.339C1309.72 59.3075 1309.61 59.2549 1309.4 59.1799C1314.34 55.0659 1319.92 52.9563 1326.26 53.2254C1334.77 53.5876 1341.34 57.4748 1346.1 64.4496C1346.08 64.49 1346.07 64.5324 1346.05 64.5727C1345.96 64.5613 1345.85 64.562 1345.76 64.5365C1343.11 63.9616 1340.84 66.0148 1340.62 68.6166C1340.5 69.9628 1340.83 71.2406 1341.19 72.5051C1341.63 74.0418 1342.02 75.5969 1342.09 77.1985C1342.18 79.3162 1341.75 81.3328 1340.65 83.1666C1339.47 85.1581 1338.23 87.1197 1337 89.0903C1335.83 90.9437 1334.65 92.7842 1333.48 94.6357C1333.43 94.7337 1333.35 94.8187 1333.28 94.9057C1333.25 94.8979 1333.22 94.888 1333.19 94.8802C1333.16 94.3621 1333.12 93.8492 1333.1 93.3331C1332.76 86.6193 1332.41 79.9125 1332.07 73.1987C1331.99 71.4704 1331.89 69.7402 1331.8 68.01C1331.8 67.9405 1331.8 67.859 1331.79 67.7876C1331.76 67.5342 1331.86 67.4641 1332.11 67.5188C1332.73 67.6525 1333.36 67.774 1333.98 67.8936C1334.22 67.9372 1334.46 67.9738 1334.71 67.9732C1335.24 67.9766 1335.61 67.6541 1335.69 67.1283C1335.77 66.6397 1335.52 66.1835 1335.02 66.0581C1333.98 65.8014 1332.94 65.5961 1331.9 65.3748C1329.01 64.7613 1326.19 63.8887 1323.42 62.882C1323.05 62.7497 1322.68 62.6154 1322.3 62.5253C1321.81 62.4058 1321.36 62.6766 1321.18 63.1357C1320.98 63.6442 1321.12 64.1172 1321.62 64.3382C1322.31 64.6516 1323.02 64.9175 1323.73 65.1693C1324.03 65.273 1324.16 65.4099 1324.19 65.7287C1324.44 69.1927 1324.71 72.6607 1324.97 76.1267C1324.98 76.2816 1324.94 76.467 1324.85 76.5944C1322.07 80.714 1319.27 84.8295 1316.48 88.9471C1316.24 89.2999 1316 89.6597 1315.76 90.0106C1315.71 90.0964 1315.64 90.1533 1315.51 90.292Z" fill="black"/>
<path d="M1325.29 79.8967C1325.35 80.7052 1325.42 81.5227 1325.49 82.3312C1325.81 86.6212 1326.15 90.9131 1326.47 95.2031C1326.63 97.2314 1326.79 99.2617 1326.94 101.29C1326.99 101.928 1326.99 101.912 1326.36 101.934C1323.87 102.049 1321.42 101.75 1319.02 101.114C1316.72 100.504 1314.55 99.5597 1312.46 98.2497C1316.71 92.1047 1320.96 85.9809 1325.2 79.855C1325.23 79.8719 1325.26 79.8868 1325.29 79.8967Z" fill="black"/>
<path d="M1309.04 95.717C1304.27 91.2907 1301.51 85.8601 1301.04 79.3567C1300.58 72.9387 1302.46 67.2172 1306.46 62.1825C1306.51 62.1892 1306.56 62.1959 1306.62 62.1955C1307.48 73.3559 1308.33 84.5163 1309.19 95.6767C1309.14 95.6841 1309.09 95.7005 1309.04 95.717Z" fill="black"/>
<path d="M1331.66 101.106C1332.23 100.271 1332.76 99.5116 1333.29 98.7526C1336 94.8374 1338.72 90.9292 1341.43 87.0139C1342.88 84.936 1344.34 82.8781 1345.77 80.7872C1347.35 78.473 1348.67 75.731 1349.23 72.3574C1349.68 72.8915 1350.11 77.1496 1349.8 79.9824C1349.5 82.5635 1348.88 85.0524 1347.83 87.4214C1344.1 95.7946 1336.72 99.9737 1331.66 101.106Z" fill="black"/>
<rect x="479.69" y="146.412" width="102" height="159" rx="9.5" transform="rotate(-32.4455 479.69 146.412)" stroke="black"/>
<path d="M565.312 245.863L558.391 234.977L562.806 232.17C564.953 230.805 567.135 231.042 568.365 232.976C569.362 234.544 569.167 235.887 568.158 236.956L568.178 236.986C570.899 235.919 572.735 240.759 573.415 240.584L573.473 240.675L571.996 241.614C571.234 241.457 569.762 236.855 567.006 238.607L563.885 240.592L566.682 244.992L565.312 245.863ZM560.536 235.324L563.11 239.374L565.836 237.641C566.963 236.925 568.291 235.887 567.091 233.999C565.891 232.111 564.388 232.875 563.261 233.591L560.536 235.324ZM577.604 236.851C579.157 235.864 579.097 234.491 578.895 233.871L580.114 233.097C580.637 234.795 580.261 236.659 578.328 237.888C575.968 239.388 573.481 238.639 571.932 236.203C570.287 233.614 570.79 231.177 573.059 229.735C575.495 228.186 577.738 229.091 579.49 231.847L573.354 235.748C574.244 237.149 575.914 237.926 577.604 236.851ZM573.737 230.801C572.275 231.73 571.882 233.434 572.676 234.682L577.594 231.555C576.801 230.307 575.198 229.872 573.737 230.801ZM584.186 225.74C583.798 225.131 583.134 224.827 581.886 225.62C580.409 226.559 580.193 227.295 580.833 228.47L579.615 229.245C578.742 227.704 578.955 225.987 581.208 224.554C582.685 223.616 584.378 223.352 585.568 225.225L587.969 229.001C588.356 229.61 588.675 229.877 589.394 229.292L589.936 230.145C589.684 230.455 589.526 230.576 589.298 230.722C588.567 231.186 588 231.269 587.244 230.552L587.214 230.571C587.191 231.612 586.614 232.62 585.335 233.433C583.766 234.43 582.206 234.161 581.373 232.852C580.25 231.086 581.269 229.796 583.037 228.138C584.192 227.062 584.679 226.517 584.186 225.74ZM584.779 232.29C586.225 231.371 586.906 230.019 585.957 228.527L585.134 227.233C585.051 227.606 584.44 228.294 583.725 228.984C582.421 230.262 581.962 231.088 582.553 232.017C583.037 232.778 583.774 232.929 584.779 232.29ZM593.384 221.047C592.781 220.233 591.505 219.505 589.952 220.492C588.11 221.664 588.406 223.677 589.336 225.139C590.265 226.601 591.962 227.724 593.805 226.552C595.373 225.555 595.249 224.116 594.719 223.149L595.937 222.374C596.954 224.208 596.401 226.398 594.482 227.618C592.213 229.06 589.666 228.349 588.117 225.913C586.569 223.477 587.006 220.869 589.274 219.426C591.193 218.207 593.315 218.653 594.602 220.273L593.384 221.047ZM598.196 215.55L596.674 216.518L599.645 221.193C600.207 222.076 600.791 221.918 601.778 221.184L602.455 222.25C602.22 222.485 601.92 222.719 601.6 222.922C600.565 223.58 599.511 223.673 598.505 222.089L595.456 217.293L594.314 218.019L593.636 216.953L594.778 216.227L593.132 213.638L594.351 212.864L595.996 215.453L597.519 214.485L598.196 215.55ZM610.819 212.272C611.942 214.039 612.334 216.269 609.882 217.828C607.431 219.386 605.592 218.075 604.469 216.309L604.276 216.004L605.646 215.133L605.84 215.438C606.672 216.747 607.524 217.616 609.108 216.61C610.691 215.603 610.281 214.453 609.448 213.143L604.637 205.576L606.008 204.705L610.819 212.272ZM615.022 207.783C616.62 207.237 618.334 206.469 619.553 208.387C620.454 209.803 619.75 211.555 617.984 212.677C615.608 214.188 613.796 213.758 612.655 212.131L613.873 211.357C614.501 212.176 615.357 212.851 617.306 211.612C618.631 210.77 618.713 209.755 618.384 209.238C617.667 208.111 616.608 208.698 615.323 209.131C613.951 209.597 612.098 210.583 610.936 208.755C610.162 207.537 610.614 205.86 612.441 204.699C614.375 203.469 616.107 203.907 617.08 205.17L615.862 205.944C615.363 205.428 614.58 204.835 613.118 205.765C612.022 206.462 611.709 207.281 612.096 207.89C612.677 208.803 613.776 208.211 615.022 207.783Z" fill="black"/>
<g clip-path="url(#clip2_12_473)">
<path d="M561.408 136.996C562.927 139.461 564.141 142.227 565.131 145.088C565.388 145.846 565.379 145.851 566.122 145.678C569.025 144.992 571.963 144.51 574.973 144.606C577.065 144.674 579.102 144.992 580.998 145.963C584.151 147.569 585.663 150.432 585.317 154.06C585.081 156.612 584.115 158.912 582.901 161.118C581.83 163.066 580.545 164.863 579.133 166.573C578.886 166.874 578.919 167.056 579.173 167.325C580.508 168.736 581.877 170.125 583.13 171.612C585.069 173.917 586.693 176.435 587.549 179.345C588.305 181.949 588.283 184.485 586.567 186.76C585.52 188.131 584.112 188.99 582.521 189.559C579.345 190.693 576.048 190.722 572.743 190.384C571.114 190.224 569.506 189.931 567.888 189.657C567.475 189.585 567.342 189.693 567.244 190.079C566.465 193.287 565.429 196.408 563.839 199.308C562.943 200.953 561.866 202.463 560.457 203.729C557.39 206.468 553.809 206.665 550.454 204.219C548.648 202.905 547.301 201.179 546.119 199.301C544.439 196.639 543.232 193.772 542.222 190.805C542.092 190.433 541.927 190.359 541.558 190.45C538.316 191.255 535.041 191.784 531.67 191.548C529.787 191.418 527.956 191.052 526.273 190.137C523.395 188.572 522.048 186.117 522.107 182.876C522.15 180.41 522.981 178.16 524.07 175.998C525.238 173.701 526.698 171.602 528.328 169.621C528.567 169.326 528.556 169.141 528.266 168.871C525.54 166.277 523.103 163.451 521.268 160.135C520.341 158.453 519.654 156.666 519.474 154.725C519.175 151.329 520.563 148.857 523.518 147.265C525.477 146.211 527.61 145.823 529.812 145.69C533.068 145.485 536.283 145.868 539.463 146.512C539.923 146.602 540.103 146.512 540.219 146.043C540.903 143.206 541.801 140.447 543.103 137.838C544.108 135.825 545.33 133.984 546.994 132.448C549.986 129.685 554.008 129.567 557.219 132.14C558.787 133.414 560.176 135.077 561.408 136.996ZM546.585 157.118C544.835 158.35 543.022 159.634 541.212 160.904C540.928 161.109 540.749 161.33 540.742 161.729C540.621 166.289 540.837 170.837 541.361 175.369C541.41 175.781 541.567 176.028 541.919 176.246C545.8 178.644 549.827 180.77 554.019 182.576C554.245 182.671 554.582 182.66 554.809 182.552C555.515 182.21 556.184 181.809 556.869 181.433C560.161 179.627 563.261 177.537 566.277 175.297C566.573 175.073 566.686 174.822 566.695 174.445C566.808 169.891 566.592 165.342 566.062 160.802C566.024 160.444 565.872 160.241 565.577 160.058C561.782 157.701 557.845 155.626 553.77 153.817C553.202 153.557 552.757 153.564 552.232 153.874C550.379 154.945 548.511 156.013 546.585 157.118ZM542.527 147.158C542.679 147.229 542.742 147.272 542.797 147.285C546.124 148.159 549.363 149.268 552.548 150.553C552.728 150.631 552.989 150.632 553.165 150.556C554.365 150.02 555.537 149.406 556.75 148.911C558.631 148.145 560.534 147.449 562.436 146.754C562.848 146.6 562.992 146.436 562.796 146.035C562.74 145.927 562.705 145.818 562.663 145.713C561.642 142.728 560.359 139.874 558.55 137.27C557.566 135.852 556.443 134.57 554.955 133.663C553.362 132.703 551.739 132.516 550.06 133.415C548.638 134.176 547.614 135.341 546.732 136.655C545.088 139.098 544.051 141.826 543.207 144.633C542.971 145.453 542.759 146.293 542.527 147.158ZM524.557 149.533C524.098 149.909 523.583 150.236 523.178 150.661C521.841 152.096 521.719 153.823 522.161 155.635C522.806 158.308 524.277 160.565 525.964 162.661C527.06 164.031 528.306 165.284 529.482 166.592C530.191 167.373 530.205 167.376 530.918 166.635C533.141 164.338 535.486 162.178 537.989 160.192C538.147 160.068 538.276 159.806 538.291 159.606C538.485 156.242 538.827 152.905 539.446 149.595C539.508 149.245 539.436 149.075 539.064 149.013C536.246 148.473 533.423 148.093 530.563 148.213C528.496 148.296 526.453 148.567 524.557 149.533ZM557.861 202.534C559.06 201.737 560.105 200.606 561.041 199.079C562.869 196.087 563.969 192.806 564.814 189.424C564.913 189.038 564.719 188.958 564.423 188.883C561.182 188.051 558.029 186.947 554.915 185.699C554.708 185.616 554.402 185.619 554.214 185.715C551.2 187.176 548.134 188.481 544.941 189.494C544.597 189.605 544.42 189.754 544.61 190.147C544.726 190.384 544.807 190.643 544.889 190.902C545.747 193.369 546.809 195.73 548.194 197.945C549.155 199.475 550.239 200.901 551.657 202.032C553.7 203.662 555.89 203.848 557.861 202.534ZM567.932 187.083C568.059 187.134 568.125 187.163 568.186 187.184C571.342 187.808 574.515 188.217 577.744 187.97C579.637 187.818 581.48 187.495 583.124 186.486C584.819 185.444 585.598 183.933 585.472 181.945C585.347 180.016 584.57 178.311 583.617 176.681C581.984 173.87 579.815 171.483 577.52 169.213C577.257 168.95 577.043 168.966 576.816 169.242C576.631 169.455 576.428 169.656 576.238 169.861C574.216 172.007 572.011 173.959 569.718 175.81C569.295 176.151 569.114 176.481 569.086 177.014C568.93 180.233 568.563 183.418 567.991 186.579C567.963 186.74 567.958 186.899 567.932 187.083ZM566.207 148.289C566.232 148.477 566.224 148.614 566.255 148.737C567.162 151.914 567.77 155.162 568.288 158.418C568.326 158.645 568.508 158.912 568.706 159.037C571.42 160.886 574.092 162.797 576.562 164.969C576.929 165.285 577.124 165.089 577.324 164.807C578.356 163.338 579.451 161.913 580.386 160.386C581.599 158.419 582.523 156.314 582.794 153.966C583.124 151.114 581.935 149.037 579.307 147.959C577.733 147.309 576.077 147.143 574.392 147.138C571.621 147.119 568.924 147.59 566.207 148.289ZM525.622 186.523C525.948 186.794 526.554 187.412 527.267 187.844C528.645 188.689 530.203 188.942 531.777 189.053C534.776 189.262 537.695 188.805 540.584 188.116C541.243 187.96 541.279 187.925 541.099 187.287C540.23 184.169 539.621 180.994 539.126 177.795C539.096 177.598 538.953 177.355 538.788 177.244C536.086 175.435 533.459 173.519 530.986 171.398C530.509 170.984 530.42 170.993 530.047 171.505C529.221 172.627 528.368 173.744 527.605 174.91C526.237 177.023 525.12 179.251 524.687 181.774C524.457 183.295 524.548 184.779 525.622 186.523ZM538.583 174.016C538.411 170.431 538.252 166.958 538.09 163.463C538.001 163.508 537.931 163.528 537.886 163.569C536.071 165.296 534.242 167.021 532.427 168.748C532.198 168.966 532.209 169.15 532.483 169.358C534.245 170.713 535.994 172.087 537.761 173.45C538.008 173.652 538.272 173.807 538.583 174.016ZM542.001 179.337C542.01 179.5 541.996 179.664 542.029 179.81C542.542 182.126 543.069 184.444 543.565 186.771C543.653 187.169 543.835 187.233 544.154 187.101C546.475 186.188 548.792 185.289 551.113 184.375C551.177 184.346 551.229 184.278 551.282 184.232C548.194 182.597 545.131 180.982 542.001 179.337ZM565.448 156.912C565.449 156.876 565.472 156.838 565.464 156.807C564.926 154.34 564.374 151.869 563.836 149.402C563.748 149.004 563.514 149.045 563.237 149.15C560.959 150.036 558.68 150.923 556.407 151.818C556.312 151.854 556.236 151.939 556.148 152.006C559.25 153.645 562.333 155.271 565.448 156.912ZM569.332 172.781C569.421 172.736 569.508 172.705 569.556 172.65C571.351 170.947 573.146 169.244 574.949 167.536C575.215 167.283 575.202 167.076 574.903 166.848C573.801 165.971 572.727 165.064 571.613 164.206C570.71 163.513 569.782 162.872 568.835 162.183C569 165.759 569.171 169.249 569.332 172.781ZM540.954 157.853C543.948 155.949 546.849 154.105 549.784 152.239C549.654 152.166 549.566 152.103 549.478 152.075C547.122 151.313 544.772 150.56 542.423 149.806C542.063 149.688 541.949 149.844 541.908 150.17C541.642 152.155 541.355 154.143 541.098 156.123C541.03 156.669 541.007 157.209 540.954 157.853ZM557.635 184.018C557.787 184.089 557.903 184.159 558.024 184.201C560.319 184.942 562.608 185.674 564.899 186.429C565.361 186.578 565.487 186.402 565.533 185.99C565.823 183.654 566.136 181.315 566.436 178.973C566.458 178.804 566.439 178.624 566.454 178.424C563.497 180.292 560.596 182.136 557.635 184.018Z" fill="black"/>
<path d="M547.222 172.239C544.925 168.607 545.973 163.792 549.582 161.534C553.107 159.329 557.827 160.273 560.234 164.003C562.535 167.585 561.436 172.431 557.886 174.688C554.327 176.951 549.503 175.845 547.222 172.239Z" fill="black"/>
</g>
<rect x="624.706" y="184.255" width="102" height="159" rx="9.5" transform="rotate(-47.7872 624.706 184.255)" stroke="black"/>
<path d="M737.667 253.019L728.113 244.352L731.555 240.557C733.143 238.806 735.143 238.159 737.147 239.978C739.152 241.796 738.703 243.849 737.114 245.6L734.763 248.192L738.758 251.817L737.667 253.019ZM730.273 244.119L733.694 247.222L736.167 244.496C737.246 243.307 737.219 242.235 736.056 241.181C734.894 240.126 733.825 240.204 732.746 241.393L730.273 244.119ZM743.547 232.843L748.28 242.448C748.749 243.409 749.436 244.665 748.296 245.921C747.908 246.349 747.549 246.584 747.338 246.709L746.537 245.982L746.682 245.821C747.269 245.282 747.605 244.831 747.544 244.119C747.492 243.559 747.171 242.757 746.261 242.419L737.667 239.324L738.758 238.122L746.208 241.08L746.233 241.053L742.456 234.046L743.547 232.843ZM748.107 229.696L746.895 231.032L750.997 234.754C751.772 235.457 752.294 235.15 753.051 234.181L753.987 235.03C753.822 235.319 753.594 235.624 753.34 235.904C752.515 236.813 751.524 237.18 750.134 235.92L745.925 232.101L745.016 233.103L744.08 232.255L744.989 231.253L742.718 229.192L743.688 228.123L745.959 230.183L747.172 228.847L748.107 229.696ZM751.151 224.085C752.278 222.842 753.905 222.418 755.469 223.836L760.226 228.152L759.256 229.221L754.766 225.148C753.884 224.348 752.813 224.132 751.844 225.201C750.753 226.403 750.787 227.896 751.843 228.854L756.092 232.709L755.122 233.778L745.568 225.11L746.537 224.041L750.092 227.266L750.116 227.239C749.962 226.442 750.096 225.248 751.151 224.085ZM764.514 223.801C762.623 225.885 760.014 225.808 757.889 223.88C755.764 221.953 755.434 219.363 757.325 217.279C759.204 215.207 761.813 215.285 763.938 217.212C766.063 219.14 766.393 221.729 764.514 223.801ZM763.579 222.952C764.961 221.429 764.425 219.603 762.968 218.281C761.512 216.96 759.642 216.604 758.26 218.127C756.866 219.664 757.402 221.49 758.859 222.811C760.315 224.133 762.185 224.489 763.579 222.952ZM764.475 209.397C765.602 208.154 767.229 207.73 768.793 209.149L773.55 213.464L772.58 214.533L768.09 210.46C767.208 209.66 766.137 209.444 765.167 210.513C764.076 211.716 764.111 213.209 765.167 214.166L769.416 218.021L768.446 219.09L761.631 212.908L762.601 211.839L763.416 212.578L763.44 212.551C763.286 211.754 763.42 210.56 764.475 209.397Z" fill="black"/>
<g clip-path="url(#clip3_12_473)">
<path d="M714 196.319C714.512 196.783 714.985 197.212 715.504 197.683C715.647 197.527 715.789 197.37 715.924 197.221C719.282 193.519 722.64 189.832 725.983 186.117C726.317 185.748 726.516 185.7 726.897 186.06C728.039 187.138 729.174 188.225 730.387 189.225C733.261 191.589 733.807 194.587 732.853 198.039C732.222 200.34 731.119 202.413 729.864 204.419C727.25 208.625 723.676 211.801 719.343 214.132C717.733 215.002 716.029 215.587 714.186 215.687C712.208 215.794 710.485 215.232 709.027 213.909C705.25 210.483 701.46 207.088 697.712 203.63C694.809 200.955 694.198 196.783 696.166 193.35C696.451 192.865 696.804 192.413 697.181 191.998C700.73 188.07 704.256 184.12 707.86 180.241C711.136 176.708 711.462 171.315 708.928 167.486C708.433 166.737 707.808 166.055 707.155 165.435C705.609 163.975 704.013 162.556 702.432 161.136C702.106 160.84 702.098 160.662 702.405 160.339C703.594 159.059 704.784 157.779 705.926 156.457C708.149 153.898 710.887 153.295 714.032 154.161C716.114 154.733 717.962 155.781 719.797 156.86C721.93 158.123 723.952 159.557 725.727 161.31C728.59 164.122 730.62 167.478 731.908 171.263C732.812 173.913 732.206 176.28 730.292 178.375C725.004 184.157 719.755 189.974 714.491 195.778C714.327 195.958 714.178 196.123 714 196.319ZM729.022 193.52C727.765 192.365 725.808 192.434 724.67 193.689C723.553 194.92 723.644 196.876 724.87 198.002C726.119 199.15 728.083 199.073 729.215 197.826C730.353 196.586 730.255 194.653 729.022 193.52Z" fill="black"/>
<path d="M677.228 185.023C677.089 184.911 676.997 184.856 676.92 184.786C675.189 183.188 673.423 181.628 671.728 179.99C669.341 177.682 668.95 175.198 670.346 172.132C671.409 169.823 672.841 167.762 674.379 165.755C676.827 162.557 679.648 159.727 682.805 157.23C685.183 155.341 687.87 154.42 690.919 154.955C692.278 155.187 693.48 155.778 694.503 156.691C698.365 160.18 702.24 163.638 706.051 167.181C709.429 170.331 709.547 175.342 706.418 178.808C702.869 182.736 699.342 186.685 695.739 190.564C692.548 193.988 692.148 199.401 694.665 203.186C695.127 203.876 695.691 204.517 696.297 205.08C697.92 206.61 699.594 208.1 701.253 209.591C701.478 209.795 701.663 209.949 701.372 210.27C700.133 211.605 698.947 212.974 697.692 214.295C695.531 216.537 692.912 217.149 689.95 216.55C687.913 216.131 686.127 215.154 684.361 214.124C682.03 212.767 679.832 211.216 677.981 209.251C675.841 206.967 673.786 204.588 672.601 201.655C671.108 197.956 671.679 194.428 674.298 191.4C677.819 187.332 681.495 183.404 685.109 179.406C686.517 177.853 687.925 176.285 689.349 174.746C689.62 174.448 689.642 174.268 689.324 173.98C688.199 172.945 688.206 172.937 687.153 174.098C684.001 177.572 680.843 181.054 677.691 184.528C677.548 184.67 677.406 184.827 677.228 185.023ZM674.641 177.2C675.897 178.34 677.816 178.266 678.948 177.034C680.101 175.778 680.017 173.814 678.768 172.682C677.52 171.549 675.519 171.65 674.411 172.903C673.287 174.157 673.392 176.068 674.641 177.2Z" fill="black"/>
</g>
<rect x="956.055" y="144.614" width="102" height="159" rx="9.5" transform="rotate(74.8031 956.055 144.614)" stroke="black"/>
<path d="M840.248 211.933L852.697 208.551L854.04 213.496C854.66 215.777 854.128 217.81 851.516 218.519C848.904 219.229 847.417 217.744 846.797 215.463L845.88 212.086L840.674 213.5L840.248 211.933ZM851.73 210.496L847.273 211.707L848.237 215.259C848.658 216.809 849.576 217.364 851.09 216.952C852.605 216.541 853.116 215.598 852.695 214.048L851.73 210.496ZM855.594 219.216L856.02 220.783L850.727 222.221L852.534 228.872L857.827 227.435L858.252 229.002L845.803 232.383L845.377 230.816L851.141 229.251L849.334 222.6L843.571 224.165L843.145 222.598L855.594 219.216ZM846.485 234.896L858.935 231.514L860.278 236.459C860.898 238.74 860.365 240.773 857.754 241.482C855.142 242.192 853.654 240.707 853.035 238.426L852.117 235.049L846.911 236.463L846.485 234.896ZM857.968 233.459L853.51 234.67L854.475 238.222C854.896 239.772 855.813 240.327 857.328 239.915C858.843 239.504 859.353 238.561 858.932 237.011L857.968 233.459Z" fill="black"/>
<g clip-path="url(#clip4_12_473)">
<path d="M927.637 172.029C928.319 174.829 929.13 177.605 929.662 180.434C930.252 183.555 929.917 186.574 927.901 189.187C926.755 190.668 925.253 191.666 923.521 192.227C918.152 193.935 913.066 193.342 908.375 190.031C906.195 188.489 904.621 186.453 903.534 183.979C902.064 180.633 901.31 177.07 900.317 173.582C900.069 172.708 900.07 172.673 899.162 172.716C897.527 172.808 895.896 172.956 894.256 173.072C893.091 173.162 891.921 173.23 890.753 173.309C890.38 173.342 890.211 173.172 890.113 172.813C889.527 170.611 888.926 168.402 888.319 166.206C888.19 165.731 888.349 165.574 888.79 165.545C890.388 165.44 891.986 165.335 893.584 165.23C895.203 165.119 896.819 164.998 898.435 164.877C900.106 164.752 901.78 164.638 903.444 164.527C905.063 164.416 906.679 164.295 908.295 164.174C909.98 164.057 911.675 163.937 913.359 163.82C914.955 163.704 916.56 163.586 918.155 163.47C919.827 163.345 921.501 163.231 923.164 163.12C923.626 163.085 924.101 163.058 924.56 163.013C924.977 162.979 925.16 163.157 925.272 163.569C926.028 166.394 926.792 169.206 927.558 172.028C927.596 172.041 927.616 172.035 927.637 172.029ZM906.9 175.846C906.932 175.838 906.963 175.829 906.984 175.823C907.291 176.954 907.533 178.092 907.921 179.19C908.185 179.958 908.596 180.686 909.02 181.377C909.818 182.704 910.877 183.755 912.348 184.298C915.311 185.377 918.275 185.219 921.169 184.104C922.174 183.717 922.882 182.935 923.19 181.841C923.504 180.723 923.499 179.589 923.245 178.489C922.713 176.159 922.055 173.863 921.461 171.55C921.389 171.286 921.276 171.158 920.969 171.185C918.757 171.343 916.55 171.477 914.338 171.635C911.73 171.821 909.134 172.05 906.53 172.212C906.024 172.248 905.957 172.414 906.072 172.836C906.365 173.835 906.628 174.842 906.9 175.846Z" fill="black"/>
<path d="M944.026 232.365C944.708 235.164 945.498 237.946 946.062 240.767C946.594 243.426 946.384 246.082 945.02 248.496C943.846 250.574 942.035 251.917 939.791 252.618C934.186 254.367 928.965 253.606 924.232 249.977C922.306 248.503 920.925 246.596 919.938 244.367C918.501 241.103 917.762 237.638 916.782 234.237C916.71 233.973 916.685 233.674 916.549 233.461C916.421 233.28 916.148 233.059 915.951 233.078C913.416 233.245 910.89 233.443 908.351 233.634C907.989 233.664 907.62 233.628 907.269 233.7C906.801 233.793 906.613 233.595 906.498 233.172C905.914 230.981 905.312 228.807 904.728 226.616C904.576 226.055 904.64 226.004 905.202 225.965C907.324 225.808 909.444 225.641 911.556 225.487C913.658 225.336 915.765 225.207 917.869 225.066C919.509 224.95 921.143 224.813 922.773 224.699C924.413 224.583 926.045 224.48 927.674 224.366C929.238 224.259 930.799 224.142 932.363 224.035C934.103 223.914 935.853 223.791 937.593 223.67C938.65 223.598 939.719 223.569 940.767 223.421C941.372 223.336 941.559 223.569 941.699 224.087C942.431 226.862 943.191 229.618 943.943 232.387C943.985 232.376 944.006 232.37 944.026 232.365ZM923.312 236.266C923.271 236.277 923.242 236.296 923.2 236.308C923.755 237.814 924.237 239.34 924.891 240.797C925.673 242.56 926.921 243.935 928.749 244.675C929.898 245.146 931.103 245.33 932.341 245.345C933.861 245.364 935.375 245.282 936.822 244.786C938.395 244.257 939.568 243.291 939.722 241.502C939.796 240.619 939.825 239.692 939.639 238.845C939.124 236.534 938.48 234.246 937.846 231.955C937.797 231.775 937.463 231.537 937.274 231.543C935.715 231.626 934.15 231.767 932.586 231.874C930.935 231.993 929.282 232.102 927.632 232.221C926.047 232.334 924.473 232.444 922.888 232.556C922.447 232.585 922.338 232.762 922.466 233.193C922.779 234.22 923.037 235.251 923.312 236.266Z" fill="black"/>
<path d="M936.943 206.344C937.343 208.062 937.808 209.775 938.134 211.513C938.524 213.61 938.67 215.715 937.841 217.745C937.317 219.034 936.361 219.895 935.138 220.511C933.646 221.257 932.047 221.441 930.418 221.555C928.316 221.706 926.221 221.878 924.119 222.029C922.017 222.179 919.91 222.309 917.816 222.447C916.669 222.52 915.512 222.596 914.369 222.725C913.879 222.778 913.636 222.629 913.507 222.153C912.92 219.952 912.32 217.742 911.712 215.547C911.583 215.071 911.756 214.922 912.197 214.893C915.49 214.668 918.767 214.425 922.057 214.189C924.127 214.047 926.193 213.929 928.254 213.755C928.944 213.692 929.647 213.512 930.304 213.289C931.387 212.938 931.978 211.892 931.743 210.616C931.443 208.973 931.055 207.341 930.668 205.71C930.421 204.676 930.114 203.67 929.846 202.642C929.766 202.346 929.639 202.21 929.322 202.239C928.047 202.336 926.774 202.398 925.496 202.484C923.787 202.596 922.082 202.719 920.377 202.842C918.781 202.957 917.176 203.075 915.58 203.191C913.896 203.308 912.201 203.428 910.516 203.545C910 203.583 909.477 203.6 908.953 203.652C908.635 203.682 908.467 203.557 908.378 203.229C907.785 201.007 907.182 198.787 906.569 196.57C906.457 196.158 906.603 195.993 906.999 195.965C909.062 195.836 911.135 195.704 913.202 195.551C914.821 195.441 916.435 195.309 918.051 195.188C919.691 195.071 921.323 194.969 922.952 194.855C924.547 194.74 926.153 194.621 927.748 194.506C929.433 194.389 931.128 194.269 932.812 194.152C934.397 194.039 935.971 193.929 937.556 193.817C939.351 193.692 941.149 193.578 942.951 193.441C943.292 193.416 943.429 193.549 943.515 193.866C944.108 196.089 944.711 198.309 945.324 200.526C945.436 200.938 945.324 201.104 944.918 201.135C943.375 201.237 941.821 201.341 940.281 201.453C938.896 201.557 937.511 201.661 936.136 201.762C935.653 201.802 935.774 202.121 935.848 202.396C936.197 203.72 936.566 205.038 936.925 206.36C936.909 206.341 936.922 206.349 936.943 206.344Z" fill="black"/>
</g>
<rect x="949.618" y="112.675" width="102" height="159" rx="9.5" transform="rotate(-15.966 949.618 112.675)" stroke="black"/>
<path d="M1013.77 235.159L1010.22 222.756L1012.36 222.145L1019.19 231.338L1019.23 231.328L1020.16 219.912L1022.3 219.302L1025.85 231.704L1024.28 232.151L1021.37 221.951L1021.33 221.961L1020.5 233.233L1019.12 233.63L1012.45 224.502L1012.42 224.512L1015.33 234.712L1013.77 235.159ZM1033.1 220.058L1032.06 230.715C1031.95 231.779 1031.87 233.209 1030.24 233.675C1029.68 233.834 1029.26 233.844 1029.01 233.839L1028.71 232.798L1028.92 232.739C1029.7 232.59 1030.23 232.384 1030.55 231.747C1030.8 231.244 1030.95 230.394 1030.36 229.626L1024.69 222.465L1026.25 222.019L1031.02 228.461L1031.05 228.451L1031.54 220.505L1033.1 220.058ZM1038.8 222.312C1040.49 222.242 1042.35 221.991 1042.97 224.177C1043.44 225.79 1042.26 227.27 1040.25 227.846C1037.55 228.62 1035.93 227.694 1035.3 225.81L1036.68 225.413C1037.05 226.377 1037.68 227.267 1039.9 226.631C1041.41 226.2 1041.78 225.25 1041.61 224.661C1041.24 223.377 1040.06 223.64 1038.71 223.69C1037.26 223.748 1035.2 224.167 1034.61 222.086C1034.21 220.698 1035.12 219.218 1037.2 218.622C1039.4 217.992 1040.94 218.904 1041.52 220.39L1040.13 220.787C1039.8 220.151 1039.21 219.36 1037.55 219.837C1036.3 220.194 1035.77 220.891 1035.96 221.584C1036.26 222.625 1037.48 222.37 1038.8 222.312ZM1049.17 215.459L1050.56 215.062L1053.95 226.893L1052.56 227.29L1051.38 223.161L1051.34 223.171C1051.04 224.083 1050.39 224.946 1048.93 225.363C1046.74 225.988 1044.47 224.742 1043.64 221.828C1042.81 218.914 1044.07 216.656 1046.26 216.03C1047.72 215.613 1048.74 216.034 1049.45 216.562L1049.49 216.552L1049.17 215.459ZM1048.76 224.099C1050.4 223.627 1051.04 221.964 1050.44 219.883C1049.84 217.801 1048.43 216.723 1046.78 217.195C1044.96 217.716 1044.53 219.696 1045.03 221.431C1045.52 223.166 1046.93 224.62 1048.76 224.099ZM1051.67 210.897L1053.06 210.5L1056.61 222.903L1055.22 223.3L1051.67 210.897Z" fill="black"/>
<g clip-path="url(#clip5_12_473)">
<path d="M1017.25 171.756C1016.95 171.674 1016.63 171.619 1016.36 171.487C1013.98 170.353 1011.61 169.216 1009.25 168.047C1007.02 166.935 1005.27 165.255 1003.68 163.371C1003.43 163.077 1003.15 162.8 1002.89 162.509C1002.84 162.532 1002.79 162.556 1002.75 162.58C1002.82 163.336 1002.89 164.092 1002.96 164.858C1003.06 165.846 1003.26 166.827 1003.26 167.811C1003.27 169.778 1001.61 170.987 999.698 170.466C998.526 170.141 997.574 169.438 996.711 168.637C994.768 166.834 993.523 164.59 992.564 162.16C991.425 159.288 991.024 156.3 991.087 153.231C991.112 152.281 991.165 151.322 991.118 150.381C991.104 150.113 990.841 149.748 990.591 149.61C988.742 148.619 987.371 147.113 986.122 145.521C984.761 143.793 983.506 141.992 982.294 140.158C981.608 139.128 980.775 138.287 979.805 137.558C978.649 136.693 977.473 135.835 976.316 134.971C975.291 134.195 974.378 133.334 973.785 132.183C972.663 129.998 973.738 127.437 976.103 126.687C977.741 126.166 979.412 126.243 981.076 126.48C982.805 126.719 984.52 127.025 986.087 127.846C986.822 128.233 987.551 128.234 988.34 127.998C990.892 127.236 993.527 127.059 996.124 127.49C998.131 127.817 1000.09 128.462 1002.03 129.08C1008.83 131.246 1014.74 134.889 1019.85 139.824C1020.82 140.761 1021.59 141.916 1022.47 142.942C1024.97 145.824 1027.48 148.69 1030 151.554C1030.58 152.207 1031.18 152.853 1031.84 153.417C1032.15 153.685 1032.62 153.866 1033.03 153.896C1038.06 154.237 1042.76 155.724 1047.34 157.727C1048.85 158.385 1050.15 159.335 1051.48 160.232C1051.83 160.466 1051.8 160.676 1051.45 160.933C1049.9 162.035 1048.17 162.75 1046.45 163.495C1045.92 163.732 1045.42 164.053 1044.9 164.348C1044.15 164.771 1043.41 165.194 1042.54 165.683C1042.88 165.952 1043.16 166.314 1043.52 166.441C1044.83 166.937 1046.14 167.431 1047.49 167.78C1050.01 168.431 1052.3 169.527 1054.44 170.98C1054.77 171.21 1055.12 171.425 1055.46 171.631C1055.92 171.908 1056.44 172.105 1056.86 172.438C1057.25 172.754 1057.55 173.203 1057.86 173.692C1057.62 173.612 1057.38 173.557 1057.15 173.455C1054.7 172.267 1052.15 171.404 1049.45 171.077C1047.04 170.781 1044.75 170.072 1042.55 169.131C1041.17 168.538 1039.96 167.679 1039.03 166.488C1038.96 166.393 1038.88 166.31 1038.8 166.217C1038.32 165.696 1038.34 165.384 1038.94 164.93C1041.53 162.973 1044.39 161.527 1047.53 160.7C1047.75 160.649 1047.95 160.58 1048.17 160.519C1048.22 160.505 1048.26 160.471 1048.39 160.403C1048.22 160.243 1048.1 160.066 1047.93 159.979C1047.54 159.775 1047.14 159.596 1046.72 159.454C1044.86 158.833 1042.98 158.281 1041.14 157.612C1038.93 156.811 1036.62 156.714 1034.31 156.611C1033.69 156.579 1033.06 156.569 1032.44 156.56C1031.31 156.546 1030.35 156.162 1029.58 155.343C1028.09 153.737 1026.58 152.124 1025.13 150.485C1023.4 148.537 1021.66 146.602 1020.03 144.573C1014.02 137.098 1006.26 132.556 996.979 130.443C995.271 130.051 993.52 129.807 991.754 129.914C991.151 129.951 990.549 130.102 989.949 130.221C988.952 130.433 987.978 130.722 986.976 130.841C986.487 130.907 985.914 130.788 985.471 130.569C983.079 129.377 980.491 129.164 977.893 128.953C977.278 128.909 976.635 128.914 976.109 129.369C975.473 129.918 975.282 130.654 975.811 131.32C976.366 132.042 977.021 132.704 977.72 133.3C978.609 134.042 979.572 134.71 980.513 135.374C982.646 136.881 984.17 138.919 985.567 141.067C986.85 143.038 988.125 145.021 989.959 146.551C990.457 146.964 990.998 147.376 991.574 147.651C992.778 148.24 993.335 149.15 993.268 150.469C993.2 151.893 993.057 153.318 993.095 154.743C993.158 157.513 993.919 160.137 995.064 162.661C995.775 164.219 996.74 165.599 997.895 166.862C998.421 167.445 999.016 167.935 999.826 168.07C1000.37 168.166 1000.47 168.065 1000.39 167.531C1000.19 166.09 999.957 164.647 999.775 163.2C999.561 161.489 999.822 159.853 1000.61 158.307C1000.79 157.951 1000.92 157.567 1001.12 157.09C1001.33 157.293 1001.54 157.423 1001.67 157.616C1003.34 160.053 1005.33 162.209 1007.43 164.27C1009.56 166.355 1011.79 168.339 1014.28 169.985C1015.16 170.56 1016.14 170.993 1017.08 171.491C1017.15 171.532 1017.21 171.579 1017.27 171.633C1017.28 171.662 1017.26 171.709 1017.25 171.756Z" fill="black"/>
<path d="M989.164 135.27C990.539 134.31 991.365 134.388 992.567 135.449C993.556 136.319 993.604 137.522 992.858 138.5C991.621 137.429 990.391 136.344 989.164 135.27Z" fill="black"/>
</g>
<rect x="1064.68" y="153.357" width="102" height="159" rx="9.5" transform="rotate(-61.5453 1064.68 153.357)" stroke="black"/>
<path d="M1185.39 214.799L1174.05 208.652L1176.49 204.147C1177.62 202.069 1179.41 200.966 1181.79 202.255C1184.17 203.545 1184.22 205.646 1183.09 207.724L1181.42 210.801L1186.17 213.371L1185.39 214.799ZM1176.09 207.913L1180.15 210.113L1181.91 206.877C1182.67 205.465 1182.39 204.431 1181.01 203.683C1179.63 202.935 1178.61 203.265 1177.85 204.676L1176.09 207.913ZM1192.55 202.12C1191.21 204.594 1188.66 205.14 1186.13 203.773C1183.61 202.406 1182.68 199.969 1184.02 197.495C1185.35 195.036 1187.9 194.49 1190.42 195.857C1192.95 197.224 1193.88 199.661 1192.55 202.12ZM1191.44 201.518C1192.42 199.71 1191.47 198.063 1189.74 197.126C1188.01 196.189 1186.11 196.288 1185.13 198.096C1184.14 199.921 1185.09 201.567 1186.82 202.504C1188.55 203.441 1190.45 203.342 1191.44 201.518ZM1192.22 190.721C1193.35 189.467 1194.48 187.962 1196.48 189.045C1197.95 189.844 1198.19 191.717 1197.19 193.557C1195.85 196.032 1194.06 196.538 1192.27 195.671L1192.96 194.402C1193.9 194.813 1194.98 194.986 1196.08 192.955C1196.83 191.575 1196.41 190.649 1195.87 190.357C1194.69 189.721 1194.05 190.749 1193.14 191.752C1192.17 192.826 1191.03 194.589 1189.13 193.558C1187.86 192.87 1187.44 191.185 1188.47 189.281C1189.56 187.267 1191.29 186.807 1192.75 187.436L1192.06 188.706C1191.38 188.497 1190.4 188.36 1189.58 189.883C1188.96 191.025 1189.08 191.893 1189.72 192.237C1190.67 192.753 1191.34 191.701 1192.22 190.721ZM1194.29 181.711L1193.43 183.297L1198.3 185.936C1199.22 186.435 1199.66 186.013 1200.16 184.892L1201.27 185.493C1201.18 185.813 1201.03 186.164 1200.85 186.497C1200.27 187.575 1199.39 188.168 1197.74 187.274L1192.75 184.566L1192.1 185.756L1190.99 185.154L1191.64 183.965L1188.94 182.503L1189.63 181.234L1192.32 182.695L1193.18 181.109L1194.29 181.711ZM1197.07 173.943L1197.76 172.674L1205.4 176.817C1207.56 177.986 1207.91 179.944 1206.71 182.164C1205.51 184.385 1203.62 185.066 1202.17 184.445L1202.86 183.176C1203.77 183.464 1204.75 183.133 1205.57 181.626C1206.38 180.119 1206.2 178.894 1204.7 178.078L1203.48 177.416L1203.46 177.447C1203.9 178.301 1204.06 179.372 1203.34 180.705C1202.25 182.704 1200.09 183.625 1197.43 182.181C1194.76 180.737 1194.35 178.422 1195.44 176.424C1196.16 175.091 1197.17 174.657 1198.05 174.516L1198.07 174.484L1197.07 173.943ZM1202.31 179.944C1203.13 178.438 1202.7 176.994 1200.8 175.963C1198.89 174.931 1197.45 175.36 1196.63 176.867C1195.73 178.533 1196.53 180.052 1198.11 180.912C1199.7 181.772 1201.41 181.61 1202.31 179.944ZM1200.48 167.116C1200.64 166.815 1200.78 166.602 1200.93 166.397L1202.2 167.084L1202.18 167.116C1200.94 168.722 1201.52 170.614 1203.25 171.551L1207.56 173.889L1206.87 175.158L1198.78 170.774L1199.47 169.505L1201.07 170.373L1201.09 170.342C1200.26 169.337 1199.85 168.274 1200.48 167.116ZM1210.72 165.949C1211.59 164.331 1210.87 163.16 1210.4 162.717L1211.08 161.448C1212.37 162.677 1212.94 164.488 1211.85 166.503C1210.52 168.962 1207.98 169.516 1205.45 168.14C1202.75 166.679 1202 164.305 1203.28 161.941C1204.66 159.403 1207.06 159.103 1209.93 160.659L1206.47 167.052C1207.93 167.843 1209.76 167.709 1210.72 165.949ZM1204.39 162.543C1203.57 164.066 1204.06 165.745 1205.36 166.45L1208.13 161.326C1206.83 160.621 1205.22 161.02 1204.39 162.543ZM1210.11 153.404C1212.13 151.193 1213.46 149.76 1216.04 151.161C1217.69 152.055 1218.57 154.111 1217.01 156.982C1215.56 159.663 1213.01 160.967 1210.32 159.716L1211.09 158.288C1212.73 158.972 1214.45 158.673 1215.74 156.294C1216.81 154.327 1216.28 153.139 1215.27 152.589C1213.71 151.746 1212.97 152.432 1211.01 154.652C1209.69 156.135 1208.01 157.847 1205.8 156.652C1204.01 155.681 1203.57 153.656 1204.93 151.15C1206.23 148.739 1208.38 147.728 1210.83 148.81L1210.06 150.237C1208.42 149.618 1207.17 150.045 1206.19 151.837C1205.33 153.44 1205.48 154.631 1206.42 155.139C1207.92 155.955 1208.79 154.846 1210.11 153.404ZM1220.09 137.223C1221.69 138.092 1222.8 139.331 1223.37 140.747L1225.42 140.136L1225.84 141.53L1223.76 142.148C1223.91 143.38 1223.67 144.704 1222.98 145.973C1221.17 149.304 1217.48 150.176 1214.07 148.327C1210.66 146.479 1209.39 142.917 1211.19 139.586C1213 136.255 1216.68 135.375 1220.09 137.223ZM1221.71 145.286C1222.23 144.334 1222.39 143.419 1222.32 142.577L1219.89 143.296L1219.48 141.902L1221.9 141.183C1221.39 140.149 1220.45 139.27 1219.31 138.651C1216.87 137.327 1214.01 137.418 1212.46 140.274C1210.91 143.129 1212.4 145.576 1214.84 146.9C1217.29 148.224 1220.16 148.141 1221.71 145.286ZM1215.43 132.294L1216.21 130.866L1226.28 136.325L1229.5 130.377L1230.77 131.064L1226.77 138.441L1215.43 132.294Z" fill="black"/>
<g clip-path="url(#clip6_12_473)">
<path d="M1116.87 103.133C1118.68 101.261 1120.36 99.223 1122.36 97.5577C1123.64 96.4546 1125.34 95.781 1126.89 95.062C1131.69 92.8433 1135.72 94.7945 1139.54 97.6065C1145.52 102.034 1150.19 107.618 1154.17 113.845C1154.31 114.091 1154.5 114.298 1154.89 114.78C1155.39 113.355 1155.87 112.155 1156.21 110.952C1156.65 109.457 1157.65 108.611 1159.15 108.371C1160.61 108.143 1162.01 108.903 1162.72 110.305C1164.29 113.531 1163.86 116.79 1162.79 120.013C1162.35 121.334 1161.72 122.554 1161.11 123.949C1163.03 125.262 1165.04 126.525 1166.95 127.931C1168.11 128.762 1169.22 129.738 1170.18 130.802C1173.19 134.026 1173.75 137.789 1172.49 141.887C1172.41 142.152 1172.39 142.445 1172.37 142.739C1171.9 143.604 1171.42 144.495 1170.95 145.361C1167.52 149.099 1164.07 148.827 1158.19 146.555C1156.21 145.788 1154.31 144.757 1152.36 143.87C1150.58 149.554 1149.17 151.468 1145.59 153.089C1145.94 157.486 1143.91 160.42 1137.99 160.673C1134.18 160.816 1130.21 160.391 1126.46 159.546C1121.03 158.333 1115.65 156.774 1110.41 154.886C1107.92 153.981 1105.56 152.224 1103.57 150.4C1098.86 146.085 1097.99 139.811 1101.42 133.733C1103.08 130.799 1105.46 128.292 1107.52 125.573C1107.88 125.091 1108.3 124.505 1108.33 123.944C1108.43 120.031 1110.25 116.809 1112.24 113.646C1112.75 112.836 1113.19 111.956 1113.55 111.033C1114.1 109.57 1114.55 108.049 1115.03 106.542C1115.64 105.415 1116.26 104.261 1116.87 103.133ZM1154.48 118.054C1154.15 117.534 1153.96 117.193 1153.77 116.852C1149.65 109.871 1144.59 103.739 1138.1 98.7977C1134.18 95.8211 1130.2 95.0884 1125.7 97.5054C1119.9 100.637 1116.87 105.673 1115.17 111.774C1114.9 112.78 1114.41 113.805 1113.78 114.651C1111.55 117.685 1110.01 120.917 1110.07 124.783C1110.08 125.265 1109.71 125.879 1109.31 126.239C1106.47 128.903 1104.05 131.903 1102.46 135.481C1100.54 139.77 1100.5 143.952 1103.55 147.846C1105.55 150.352 1108.11 152.183 1111.09 153.387C1117.22 155.895 1123.6 157.558 1130.1 158.435C1133.23 158.843 1136.48 158.974 1139.6 158.526C1143.4 158.009 1144.54 155.337 1143.07 151.794C1142.48 150.356 1142.06 148.87 1141.37 147.482C1140.49 145.645 1140.36 144.05 1142.36 142.892C1142.62 142.728 1142.79 142.413 1143.04 142.142C1144.57 143.988 1143.73 145.843 1143.28 147.698C1143 148.904 1142.47 150.249 1143.94 151.011C1145.32 151.756 1146.26 150.64 1147.23 149.873C1147.3 149.809 1147.35 149.704 1147.42 149.64C1149.63 147.207 1150.73 144.413 1150.11 140.821C1151.94 141.81 1153.51 142.696 1155.08 143.515C1156.7 144.322 1158.33 145.103 1159.96 145.817C1162.77 147.002 1165.64 147.333 1168.23 145.449C1172.16 142.624 1172.67 135.545 1169.19 132.196C1167.5 130.571 1165.56 129.244 1163.68 127.852C1161.97 126.587 1160.2 125.36 1158.52 124.176C1158.59 123.911 1158.58 123.804 1158.63 123.725C1158.91 123.268 1159.23 122.798 1159.49 122.326C1161.3 119.17 1162.25 115.849 1161.35 112.207C1161.09 111.222 1160.75 110.154 1159.51 110.162C1158.29 110.145 1157.97 111.122 1157.65 112.14C1157.03 114.243 1156.35 116.384 1154.48 118.054Z" fill="black"/>
<path d="M1152.96 120.284C1152.76 122.108 1153.71 123.332 1155.39 124.449C1159.41 127.135 1163.38 129.966 1167.19 132.912C1170.22 135.267 1170.42 140.394 1167.82 143.228C1166.34 144.831 1163.85 145.383 1161.48 144.267C1157.28 142.297 1153.1 140.233 1148.99 138.039C1146.2 136.561 1144.55 136.688 1142.49 139.233C1141.28 137.799 1140.09 136.406 1138.92 135.027C1135.87 131.373 1131.78 129.46 1127.27 128.441C1124.77 127.869 1122.46 129.296 1121.66 131.78C1121.15 133.365 1120.87 135.013 1120.47 136.629C1114.97 133.649 1109.85 126.873 1112.79 120.122C1115.53 113.805 1120.44 110.12 1127.29 109.152C1129.29 108.877 1131.33 108.964 1133.6 108.873C1133.1 109.791 1132.78 110.327 1132.5 110.892C1130.53 114.978 1131.92 118.277 1136.39 119.375C1138.75 119.941 1141.2 120.218 1143.64 120.32C1146.77 120.42 1149.87 120.305 1152.96 120.284Z" fill="black"/>
<path d="M1110.52 127.847C1112.99 133.898 1117.39 137.707 1122.96 140.423C1124.88 141.361 1126.76 142.446 1128.52 143.673C1131.62 145.79 1134.86 146.804 1138.6 145.535C1139.62 148.259 1140.65 150.824 1141.54 153.476C1142.07 155.086 1141.54 156.016 1139.87 156.503C1138.79 156.798 1137.6 157.036 1136.5 156.982C1126.88 156.553 1117.62 154.586 1109.06 150.051C1103.94 147.379 1101.94 142.427 1103.62 137.675C1105 133.809 1107.55 130.746 1110.52 127.847Z" fill="black"/>
<path d="M1152.01 118.069C1150.43 115.82 1148.23 114.323 1145.73 113.377C1142.5 112.136 1139.71 110.284 1136.88 108.376C1135.63 107.529 1133.94 107.12 1132.41 106.971C1127.06 106.483 1122.11 107.733 1117.68 110.861C1118.63 105.883 1123.03 99.9864 1128.77 98.2834C1131.09 97.6055 1133.11 97.8527 1135.06 99.1132C1142.43 103.886 1147.74 110.495 1152.01 118.069Z" fill="black"/>
<path d="M1133.47 132.476C1134.76 133.686 1136.31 135.065 1137.77 136.535C1138.73 137.533 1139.47 138.749 1140.49 139.709C1141.51 140.668 1141.22 141.326 1140.38 142.124C1137.93 144.495 1133.71 144.783 1130.85 142.861C1128.66 141.405 1126.34 140.077 1124.04 138.831C1123.11 138.329 1122.57 137.761 1122.8 136.767C1123.14 135.055 1123.45 133.288 1124.09 131.667C1124.57 130.401 1125.8 129.844 1127.19 130.296C1129.11 130.927 1131.07 131.653 1133.47 132.476ZM1124.4 132.039C1124.63 132.81 1124.78 133.363 1124.94 133.89C1125.66 133.569 1126.56 133.415 1127 132.869C1127.26 132.504 1126.83 131.593 1126.72 130.92C1126 131.242 1125.3 131.578 1124.4 132.039Z" fill="black"/>
<path d="M1135.52 109.748C1136.37 110.38 1137.01 110.965 1137.75 111.366C1140.31 112.715 1142.9 113.986 1145.44 115.361C1146.84 116.121 1148.18 117.052 1149.44 118.14C1144.81 118.346 1140.25 118.756 1135.84 117.112C1133.82 116.356 1133.16 114.608 1134.01 112.594C1134.4 111.685 1134.92 110.849 1135.52 109.748ZM1136.7 114.189C1136.37 113.294 1136.16 112.672 1135.91 112.061C1135.5 112.38 1134.88 112.625 1134.74 113.021C1134.55 113.562 1134.73 114.237 1134.74 114.852C1135.31 114.686 1135.85 114.505 1136.7 114.189Z" fill="black"/>
<path d="M1144.98 149.096C1145.17 148.247 1145.18 147.713 1145.37 147.239C1146.13 145.208 1146.01 143.278 1144.97 141.356C1144.54 140.578 1144.12 139.64 1145.38 139.138C1146.49 138.684 1147.39 139.104 1147.86 140.311C1149.1 143.324 1148.09 146.642 1144.98 149.096Z" fill="black"/>
<path d="M1159.55 112.865C1160.16 116.483 1159.2 119.323 1157.5 121.961C1157.09 122.588 1156.56 123.184 1155.71 122.351C1154.88 121.558 1154.54 120.29 1155.33 119.77C1157.71 118.213 1158.51 115.728 1159.55 112.865Z" fill="black"/>
</g>
<rect x="55.5735" y="16.8785" width="102" height="159" rx="9.5" transform="rotate(-9.19901 55.5735 16.8785)" stroke="black"/>
<path d="M105.056 139.884L110.738 138.964L110.969 140.389L105.287 141.309L106.219 147.062L104.616 147.322L102.553 134.587L111.192 133.188L111.422 134.613L104.387 135.752L105.056 139.884ZM114.011 134.669C113.619 134.733 113.071 134.511 112.982 133.958C112.892 133.406 113.342 133.023 113.734 132.959C114.144 132.893 114.673 133.118 114.763 133.67C114.852 134.222 114.42 134.603 114.011 134.669ZM113.584 136.548L115.009 136.317L116.48 145.4L115.055 145.631L113.584 136.548ZM123.789 134.895L125.214 134.664L126.604 143.249C126.996 145.671 125.663 147.148 123.17 147.552C120.676 147.956 118.985 146.877 118.591 145.351L120.016 145.12C120.344 146.017 121.205 146.591 122.897 146.317C124.589 146.043 125.45 145.154 125.176 143.462L124.954 142.091L124.918 142.096C124.511 142.967 123.76 143.746 122.264 143.988C120.02 144.352 117.969 143.203 117.485 140.211C117 137.219 118.583 135.482 120.827 135.119C122.323 134.877 123.288 135.415 123.935 136.023L123.97 136.017L123.789 134.895ZM122.24 142.713C123.932 142.439 124.813 141.218 124.467 139.081C124.12 136.943 122.899 136.063 121.207 136.337C119.337 136.64 118.621 138.199 118.91 139.981C119.198 141.762 120.37 143.016 122.24 142.713ZM136.799 132.532C138.633 132.235 139.7 133.177 140.008 135.083L141.035 141.424L139.61 141.654L138.641 135.67C138.451 134.495 138.069 133.606 136.644 133.837C135.22 134.067 134.493 135.227 134.721 136.634L135.639 142.298L134.214 142.528L133.245 136.544C133.054 135.369 132.673 134.48 131.248 134.711C129.823 134.941 129.097 136.101 129.325 137.508L130.242 143.172L128.817 143.402L127.346 134.319L128.771 134.088L128.947 135.175L128.983 135.169C129.36 134.45 130.031 133.628 131.402 133.406C132.702 133.196 133.54 133.627 134.078 134.581L134.114 134.576C134.599 133.62 135.427 132.754 136.799 132.532ZM147.579 133.418C147.464 132.706 146.974 132.164 145.514 132.4C143.786 132.68 143.297 133.271 143.421 134.604L141.996 134.834C141.803 133.074 142.676 131.581 145.312 131.154C147.039 130.874 148.698 131.3 149.053 133.49L149.768 137.907C149.884 138.62 150.072 138.992 150.963 138.738L151.125 139.735C150.771 139.92 150.578 139.97 150.311 140.013C149.456 140.151 148.902 140.004 148.491 139.047L148.455 139.052C148.024 140 147.095 140.698 145.599 140.941C143.764 141.238 142.437 140.374 142.188 138.843C141.854 136.777 143.299 135.994 145.578 135.168C147.064 134.635 147.726 134.327 147.579 133.418ZM145.539 139.671C147.231 139.397 148.39 138.423 148.107 136.678L147.862 135.164C147.638 135.474 146.806 135.865 145.876 136.217C144.173 136.876 143.426 137.454 143.602 138.541C143.746 139.431 144.364 139.861 145.539 139.671Z" fill="black"/>
<path fill-rule="evenodd" clip-rule="evenodd" d="M100.055 33.4106L120.846 30.0573C127.302 29.016 133.389 33.3888 134.435 39.8185C135.168 44.3243 133.231 48.6497 129.784 51.1931C133.861 52.5233 137.069 56.0189 137.802 60.5247C138.848 66.9544 134.457 73.0171 128.001 74.0584C124.328 74.6507 120.775 73.4912 118.201 71.1978L120.378 84.5844C121.424 91.0141 117.033 97.0768 110.577 98.1181C104.121 99.1593 98.0331 94.7866 96.9875 88.3569C96.2549 83.8511 98.1918 79.5256 101.638 76.982C97.5619 75.6519 94.3531 72.1563 93.6205 67.6505C92.8878 63.1448 94.8247 58.8192 98.2713 56.2757C94.1948 54.9456 90.9861 51.4501 90.2534 46.9443C89.2078 40.5146 93.5986 34.4519 100.055 33.4106ZM92.8523 46.5251C92.0392 41.5249 95.4548 36.8087 100.476 35.9989L109.571 34.5319L112.517 52.6498L103.422 54.1168L103.394 54.1214C98.3832 54.9139 93.6639 51.5159 92.8523 46.5251ZM114.392 64.174C114.398 64.215 114.405 64.2561 114.411 64.2972C114.418 64.3384 114.425 64.3794 114.432 64.4203L115.885 73.356L106.789 74.8231C101.768 75.6331 97.0325 72.2316 96.2194 67.2314C95.4078 62.2404 98.8092 57.5324 103.815 56.7097L103.843 56.7052L112.938 55.2382L114.392 64.174ZM117.029 63.9865L116.993 63.7695C116.249 58.8221 119.632 54.179 124.596 53.3579L124.634 53.3519C124.643 53.3504 124.652 53.3489 124.662 53.3474C129.672 52.5547 134.392 55.9529 135.203 60.9439C136.016 65.9441 132.601 70.6603 127.58 71.4701C122.595 72.274 117.892 68.9274 117.029 63.9865ZM117.284 54.5372C116.727 55.1578 116.236 55.8355 115.821 56.5582L115.538 54.8189L117.284 54.5372ZM124.241 50.759C124.232 50.7605 124.222 50.762 124.213 50.7635C124.199 50.7658 124.184 50.7682 124.17 50.7705L115.117 52.2306L112.171 34.1126L121.267 32.6456C126.287 31.8358 131.023 35.2374 131.836 40.2376C132.648 45.2284 129.246 49.9362 124.241 50.759ZM107.21 77.4115C102.189 78.2213 98.7734 82.9375 99.5865 87.9378C100.4 92.938 105.135 96.3396 110.156 95.5298C115.177 94.72 118.592 90.0037 117.779 85.0035L116.306 75.9444L107.21 77.4115Z" fill="black"/>
<defs>
<clipPath id="clip0_12_473">
<rect width="59.5406" height="67.6598" fill="white" transform="translate(214.164 137.145) rotate(-53.4005)"/>
</clipPath>
<clipPath id="clip1_12_473">
<rect width="63.1491" height="71.2683" fill="white" transform="translate(413.359 98.3242) rotate(27.0445)"/>
</clipPath>
<clipPath id="clip2_12_473">
<rect width="72.1704" height="67.6598" fill="white" transform="translate(505.109 158.934) rotate(-32.4455)"/>
</clipPath>
<clipPath id="clip3_12_473">
<rect width="67.6598" height="67.6598" fill="white" transform="translate(654.203 187.766) rotate(-47.7872)"/>
</clipPath>
<clipPath id="clip4_12_473">
<rect width="97.4301" height="46.0087" fill="white" transform="translate(932.57 153.645) rotate(74.8031)"/>
</clipPath>
<clipPath id="clip5_12_473">
<rect width="69.464" height="67.6598" fill="white" transform="translate(972.43 127.738) rotate(-15.966)"/>
</clipPath>
<clipPath id="clip6_12_473">
<rect width="64.9534" height="67.6598" fill="white" transform="translate(1093.66 145.977) rotate(-61.5454)"/>
</clipPath>
</defs>
</svg>
