<svg width="68" height="68" viewBox="0 0 68 68" fill="none" xmlns="http://www.w3.org/2000/svg">
<g id="Group 1983">
<circle id="Ellipse 59" cx="34" cy="34" r="34" fill="#7A55C6"/>
<path id="Vector" d="M50 47.3455C50 48.2502 49.9312 50.0217 49.9312 50.0217C49.9312 50.0217 50.0484 50.75 49.6337 50.9415C49.219 51.1329 48.9698 50.812 48.7039 50.5905C43.9783 46.735 39.2551 42.8777 34.5344 39.0185C29.3277 34.7639 24.1112 30.5168 18.8847 26.2772C18.5861 26.0504 18.3491 25.7512 18.1957 25.4073C18.0422 25.0634 17.9773 24.686 18.007 24.31C18.0572 22.4649 18.0367 20.6179 18.0386 18.7709C18.0386 18.4706 18.0553 18.2078 18.3752 18.0576C18.695 17.9074 18.8866 18.0783 19.106 18.2566C27.9796 25.5057 36.8538 32.753 45.7287 39.9983C46.9312 40.9807 48.133 41.9636 49.3343 42.9472C49.5529 43.1195 49.7274 43.3422 49.8432 43.5966C49.959 43.851 50 44.4094 50 44.4094C49.9888 45.3742 50 46.3409 50 47.3075V47.3455Z" fill="white"/>
<path id="Vector_2" d="M50 27.011C50 29.5444 50 32.0778 50 34.6112C50 35.164 49.8464 35.615 49.2798 35.8683C48.7133 36.1217 48.1757 35.9931 47.6859 35.6227C44.3266 33.0829 40.963 30.5463 37.5954 28.0129C36.7984 27.4122 36.8047 26.5831 37.5954 25.9804C40.97 23.4355 44.3459 20.89 47.7233 18.3438C47.9239 18.1677 48.1781 18.0526 48.4516 18.0142C48.7251 17.9758 49.0047 18.0158 49.2529 18.1288C49.7945 18.3649 49.9958 18.7871 49.9938 19.3341C49.9938 21.8886 50 24.4527 50 27.011Z" fill="white"/>
<path id="Vector_3" d="M18 42.4796C18 40.0937 18 37.7077 18 35.3237C18 34.7867 18.1743 34.3784 18.7304 34.1326C18.9772 34.0198 19.2555 33.9776 19.5291 34.0113C19.8027 34.045 20.0587 34.1532 20.2638 34.3217C23.639 36.7303 27.0149 39.1389 30.3915 41.5475C31.207 42.1299 31.1987 42.871 30.3915 43.4495C27.0578 45.8279 23.7227 48.2056 20.3862 50.5827C20.2918 50.6556 20.1928 50.7231 20.0895 50.785C19.8788 50.9169 19.6311 50.9912 19.3757 50.9993C19.1202 51.0073 18.8676 50.9487 18.6474 50.8304C18.4401 50.7308 18.2691 50.5783 18.1552 50.3917C18.0414 50.205 17.9896 49.9922 18.0062 49.7792C18.0048 47.3479 18.0028 44.9147 18 42.4796Z" fill="white"/>
</g>
</svg>
