<svg width="175" height="49" viewBox="0 0 175 49" fill="none" xmlns="http://www.w3.org/2000/svg">
<g clip-path="url(#clip0_55_120)">
<path fill-rule="evenodd" clip-rule="evenodd" d="M113.68 0.0051775H115.794C115.948 0.0051775 116.102 0.0066614 116.255 0.0081453C116.562 0.0111131 116.869 0.0140809 117.176 0.0051775C117.274 -0.00684663 117.372 0.012684 117.457 0.0608429C117.542 0.109002 117.609 0.183192 117.648 0.27228C119.106 2.83291 120.572 5.39086 122.045 7.94614L127.818 18.0239C127.856 18.0892 127.897 18.1518 127.947 18.2273L127.947 18.2274C127.969 18.2601 127.992 18.2951 128.018 18.3338L129.561 15.6334C132.483 10.5139 135.408 5.3962 138.336 0.280293C138.373 0.212283 138.425 0.153168 138.488 0.107045C138.551 0.0609217 138.623 0.0288956 138.7 0.0131903C139.842 -0.00817796 140.987 -0.000164878 142.132 0.0131903C142.189 0.017503 142.246 0.0255325 142.302 0.0372285L142.13 0.339915C141.846 0.841948 141.569 1.3313 141.289 1.8188C137.454 8.49281 133.621 15.1704 129.79 21.8515C129.75 21.9398 129.682 22.0131 129.597 22.061C129.512 22.1089 129.413 22.1291 129.316 22.1186C128.441 22.1062 127.566 22.1062 126.689 22.1186C126.597 22.1303 126.504 22.1127 126.423 22.0686C126.342 22.0245 126.276 21.956 126.237 21.8729C122.106 14.6789 117.963 7.48672 113.809 0.296319L113.789 0.250229L113.789 0.249683L113.788 0.248835C113.756 0.17469 113.726 0.104536 113.68 0.0051775ZM67.8425 4.57524V22.0838H64.5934V0.0104502H64.9491H68.1469C68.2565 0.00300381 68.3661 0.023669 68.4652 0.0704562C68.5643 0.117243 68.6495 0.188573 68.7127 0.277553C73.4651 5.98643 78.2247 11.6909 82.9915 17.3908C83.0203 17.4271 83.052 17.462 83.108 17.5238L83.1081 17.5239C83.1304 17.5486 83.1566 17.5775 83.1881 17.6125V0.0318148H86.4992V22.0918L86.1543 22.1079H82.9214C82.8178 22.1145 82.7142 22.0953 82.62 22.0519C82.5259 22.0085 82.4442 21.9423 82.3826 21.8595C77.6284 16.1613 72.8688 10.4577 68.1038 4.74885C68.0729 4.71052 68.0393 4.67308 68.0056 4.6355L68.0054 4.63526L68.0053 4.63509L68.0052 4.63498L68.0051 4.63492C67.9803 4.60722 67.9554 4.57945 67.9314 4.5512L67.8425 4.57524ZM98.5819 22.1027H98.5816H98.5815H98.5814H98.5813H98.5812H98.5811H98.581H98.5808H98.5807H98.5806C97.048 22.0973 95.515 22.092 93.9832 22.108C93.0624 22.1255 92.1635 21.828 91.4379 21.2657C90.7122 20.7034 90.204 19.9105 89.9986 19.0203C89.9337 18.7056 89.8994 18.3853 89.8963 18.0641V4.06256C89.8851 3.53577 89.9806 3.01211 90.1771 2.52257C90.3737 2.03303 90.6673 1.58755 91.0406 1.21249C91.4138 0.837429 91.8592 0.540413 92.3503 0.339019C92.8414 0.137624 93.3683 0.0359452 93.8997 0.0399914C98.5695 0.0186232 103.239 0.0186232 107.909 0.0399914C108.435 0.0374943 108.956 0.138638 109.443 0.337556C109.929 0.536473 110.371 0.829199 110.742 1.19873C111.113 1.56826 111.406 2.00722 111.605 2.49014C111.804 2.97305 111.904 3.49029 111.899 4.01181C111.91 7.14601 111.906 10.2802 111.903 13.4136C111.901 14.98 111.899 16.5463 111.899 18.1122C111.897 18.6437 111.789 19.1696 111.581 19.6595C111.373 20.1493 111.069 20.5934 110.687 20.966C110.304 21.3386 109.851 21.6323 109.354 21.8302C108.856 22.0281 108.324 22.1261 107.788 22.1187C106.179 22.087 104.572 22.0944 102.967 22.1017H102.966H102.966H102.965H102.965H102.964H102.964H102.963H102.963H102.963C102.268 22.1048 101.574 22.108 100.88 22.108C100.115 22.108 99.3498 22.1054 98.5843 22.1027H98.584H98.5837H98.5834H98.5831H98.5828H98.5825H98.5822H98.5819ZM108.566 11.0393V4.49526C108.566 3.42685 108.383 3.23721 107.289 3.23721H94.4331C93.3959 3.23721 93.175 3.46158 93.175 4.49526V17.5005C93.175 18.5689 93.3878 18.7692 94.452 18.7692H107.311C108.389 18.7692 108.564 18.5929 108.566 17.5325V11.0393ZM170.733 32.1057H174.039C174.039 31.9684 174.039 31.8333 174.039 31.7001V31.6995V31.699V31.6985V31.6979V31.6974V31.6969V31.6964V31.6959C174.04 31.4366 174.041 31.1846 174.039 30.9384C174.057 30.4017 173.965 29.867 173.767 29.367C173.569 28.8671 173.27 28.4126 172.889 28.0315C172.507 27.6504 172.051 27.3508 171.548 27.1511C171.045 26.9514 170.507 26.8559 169.965 26.8704H156.064C155.536 26.8662 155.012 26.9661 154.523 27.1644C154.034 27.3628 153.59 27.6555 153.217 28.0257C152.843 28.3958 152.547 28.8359 152.347 29.3204C152.147 29.8049 152.046 30.324 152.049 30.8476V35.5486C152.039 36.0836 152.137 36.6152 152.339 37.1116C152.541 37.608 152.841 38.0589 153.223 38.4372C153.604 38.8156 154.059 39.1137 154.56 39.3136C155.061 39.5135 155.597 39.6111 156.136 39.6006H169.572C170.534 39.6006 170.72 39.7688 170.736 40.7197V44.3871C170.733 44.5755 170.72 44.7637 170.695 44.9506C170.615 45.4955 170.442 45.6585 169.887 45.7065H169.618H156.524C155.611 45.7065 155.371 45.4661 155.355 44.5607V43.9624C155.348 43.8816 155.337 43.8013 155.32 43.722H152.087C152.087 43.8935 152.086 44.0627 152.084 44.2303V44.2305V44.2314C152.081 44.5616 152.078 44.8857 152.087 45.2097C152.146 47.1996 153.892 48.9492 155.891 48.9492C160.681 48.9687 165.471 48.9687 170.262 48.9492C172.18 48.9438 173.944 47.3252 174.033 45.4394C174.117 43.6418 174.138 41.8362 174.055 40.0413C173.963 37.7549 172.228 36.2271 169.922 36.2271H156.694H156.255C155.633 36.1923 155.385 35.9867 155.385 35.3643C155.367 33.9077 155.367 32.452 155.385 30.9972C155.393 30.4122 155.641 30.1905 156.231 30.1264C156.353 30.1144 156.477 30.109 156.6 30.1104H169.531C170.491 30.1131 170.687 30.2974 170.733 31.2509V32.1057ZM99.0808 26.8945V48.9358H116.956C117.499 48.9524 118.039 48.8587 118.544 48.6605C119.049 48.4623 119.508 48.1637 119.892 47.7831C120.276 47.4025 120.578 46.948 120.778 46.4475C120.978 45.9471 121.073 45.4113 121.057 44.8731V30.901C121.067 30.3687 120.969 29.8398 120.768 29.3461C120.567 28.8524 120.268 28.4041 119.887 28.0282C119.507 27.6524 119.054 27.3568 118.555 27.1592C118.056 26.9616 117.523 26.8661 116.986 26.8784H99.4499C99.3922 26.8784 99.3345 26.8822 99.2753 26.8861C99.2128 26.8902 99.1486 26.8945 99.0808 26.8945ZM102.341 44.3763V37.9098L102.343 31.4779V31.1441C102.381 30.4362 102.656 30.1558 103.372 30.1558H116.746C117.481 30.1585 117.673 30.3534 117.751 31.0693C117.763 31.2024 117.768 31.3362 117.764 31.4699V44.403C117.764 45.5008 117.565 45.6985 116.447 45.6985H103.688C102.564 45.6985 102.341 45.4768 102.341 44.3763ZM93.3399 48.9615C93.6547 48.9646 93.972 48.9676 94.2928 48.9676L94.3036 26.9076H90.9764V44.3868C90.9426 44.3837 90.91 44.3726 90.8814 44.3545C90.8529 44.3364 90.8291 44.3118 90.812 44.2827C86.0381 38.5631 81.2668 32.8409 76.4983 27.116C76.4467 27.0391 76.3759 26.9768 76.2928 26.9351C76.2097 26.8935 76.1171 26.8739 76.0241 26.8782H72.6915C72.5923 26.8812 72.4934 26.8892 72.3951 26.9023V49.005H75.6281V31.4724C75.7572 31.5324 75.8685 31.6244 75.9514 31.7395C80.6086 37.2774 85.2496 42.8296 89.8745 48.396C90.0139 48.5958 90.2043 48.7553 90.4264 48.8581C90.6484 48.9609 90.894 49.0033 91.138 48.981C91.868 48.9472 92.5967 48.9543 93.339 48.9615H93.3391H93.3392H93.3393H93.3394H93.3395H93.3396H93.3398H93.3399ZM128.89 26.9319H125.628V44.8758V45.175C125.665 46.1909 126.097 47.1531 126.835 47.8594C127.572 48.5657 128.557 48.9611 129.583 48.9625H143.592C143.816 48.968 144.041 48.9546 144.263 48.9224C146.259 48.5806 147.606 46.9673 147.606 44.8919V27.2845C147.606 27.2257 147.601 27.1669 147.596 27.1082L147.595 27.1077C147.59 27.0491 147.585 26.9905 147.585 26.9319H144.293V44.5046C144.293 45.5383 144.104 45.7252 143.056 45.7252H130.162H129.828C129.197 45.6852 128.977 45.4768 128.912 44.8465C128.89 44.6702 128.89 44.4912 128.89 44.3123V26.9319ZM144.845 22.0785H148.078V0.0345365H144.845V22.0785ZM64.4637 26.8947H67.6966V48.9494H64.4637V26.8947ZM46.2625 46.8564C46.2625 46.8564 46.3622 44.3355 46.3622 43.0481V42.9941C46.3622 42.5354 46.3604 42.0768 46.3586 41.6183V41.618V41.6177C46.355 40.7011 46.3514 39.785 46.3622 38.87C46.3622 38.87 46.3028 38.0754 46.135 37.7134C45.9672 37.3514 45.7144 37.0345 45.3977 36.7893C43.6573 35.3897 41.916 33.9909 40.1738 32.5931C27.3158 22.2829 14.4586 11.9701 1.60235 1.65457L1.56955 1.62834C1.26506 1.38458 0.99095 1.16514 0.54357 1.37145C0.080184 1.58513 0.0559377 1.95907 0.0559377 2.38644C0.0552911 3.01726 0.0565068 3.64808 0.0577225 4.27886C0.0615719 6.27621 0.0654206 8.2732 0.0101384 10.2686C-0.0328232 10.8036 0.0612107 11.3407 0.283512 11.8301C0.505812 12.3194 0.849178 12.7452 1.28176 13.0679C8.85398 19.1008 16.4118 25.1445 23.9553 31.1988C30.7948 36.6904 37.6378 42.1794 44.4844 47.6657C44.5413 47.7122 44.5977 47.7619 44.6543 47.8118C44.9815 48.0999 45.3194 48.3974 45.8314 48.1652C46.4322 47.8927 46.2625 46.8564 46.2625 46.8564ZM46.3697 13.761V24.3383C46.3697 25.1076 46.1703 25.7352 45.4348 26.0878C44.6994 26.4404 44.0016 26.2614 43.3658 25.7459C39.0049 22.2113 34.6387 18.6811 30.267 15.1553C29.2325 14.3193 29.2406 13.1654 30.267 12.3267C34.6477 8.78491 39.0301 5.24223 43.4143 1.69867C43.6747 1.45357 44.0047 1.29349 44.3597 1.24C44.7147 1.18651 45.0777 1.24219 45.3998 1.39951C46.103 1.72805 46.3643 2.31567 46.3616 3.07692C46.3616 4.85315 46.3636 6.63272 46.3657 8.41296V8.41496L46.3657 8.42303C46.3677 10.2026 46.3697 11.9828 46.3697 13.761ZM0.0402926 26.037V36.1468C0.0438847 39.5871 0.0465785 43.0247 0.0483746 46.4597C0.0268193 46.7606 0.0940504 47.0612 0.241869 47.3249C0.389688 47.5886 0.611706 47.804 0.880851 47.9448C1.16673 48.1119 1.49479 48.1947 1.82648 48.1833C2.15817 48.172 2.47969 48.067 2.75326 47.8807C2.88737 47.7932 3.01602 47.6977 3.13851 47.5949C7.47063 44.2365 11.8009 40.8772 16.1295 37.5171C17.1775 36.6997 17.1883 35.6527 16.1295 34.83C11.7453 31.4271 7.36197 28.0242 2.97956 24.6214C2.71337 24.3833 2.38093 24.2305 2.02571 24.1829C1.67049 24.1352 1.30904 24.1949 0.988618 24.3542C0.266598 24.7015 0.0402926 25.2784 0.0402926 26.037Z" fill="black"/>
</g>
<defs>
<clipPath id="clip0_55_120">
<rect width="174.106" height="49" fill="white"/>
</clipPath>
</defs>
</svg>
